<!DOCTYPE svg PUBLIC "-//W3C//DTD SVG 1.1//EN" "http://www.w3.org/Graphics/SVG/1.1/DTD/svg11.dtd">
<!-- Uploaded to: SVG Repo, www.svgrepo.com, Transformed by: SVG Repo Mixer Tools -->
<svg height="800px" width="800px" version="1.1" id="Layer_1" xmlns="http://www.w3.org/2000/svg" xmlns:xlink="http://www.w3.org/1999/xlink" viewBox="0 0 512.001 512.001" xml:space="preserve" fill="#000000">
<g id="SVGRepo_bgCarrier" stroke-width="0"/>
<g id="SVGRepo_tracerCarrier" stroke-linecap="round" stroke-linejoin="round"/>
<g id="SVGRepo_iconCarrier"> <ellipse style="fill:#656d4a;" cx="255.995" cy="298.539" rx="74.166" ry="62.415"/> <g> <path style="fill:#000;" d="M256,375.845c-49.107,0-89.057-34.68-89.057-77.306c0-42.628,39.95-77.308,89.057-77.308 s89.057,34.68,89.057,77.308C345.057,341.164,305.107,375.845,256,375.845z M256,251.012c-32.683,0-59.274,21.32-59.274,47.525 c0,26.206,26.59,47.524,59.274,47.524s59.274-21.318,59.274-47.524C315.274,272.332,288.685,251.012,256,251.012z"/> <circle style="fill:#000;" cx="232.125" cy="298.539" r="16.703"/> <circle style="fill:#000;" cx="279.881" cy="298.539" r="16.703"/> </g> <g> <path style="fill:#656d4a;" d="M486.412,52l-43.022,105.122c-6.857-11.304-15.191-21.889-24.913-31.613 c-32.104-32.104-71.365-52.833-112.682-62.011C323.164,49.908,423.608-23.196,486.412,52z"/> <path style="fill:#656d4a;" d="M206.156,63.463c-41.124,9.125-80.332,29.766-112.612,62.047 c-9.722,9.724-18.075,20.325-24.913,31.63L25.59,52C88.34-23.11,188.644,49.768,206.156,63.463z"/> </g> <g> <path style="fill:#000;" d="M217.934,482.218h-42.988c-5.952-18.496-22.8-56.016-70.352-115.511 C50.183,298.645,51.715,213.661,81.35,164.88c0.007-0.01,0.016-0.021,0.022-0.031c6.204-10.254,13.841-19.947,22.702-28.809 c29.153-29.15,65.566-49.22,105.309-58.038c5.624-1.248,10.025-5.629,11.296-11.249c1.272-5.62-0.81-11.469-5.349-15.019 C200.908,40.455,149.659,3.653,95.656,3.653c-32.566,0-59.983,13.055-81.494,38.801c-3.538,4.235-4.444,10.081-2.353,15.188 l40.293,98.428c-16.403,30.383-23.51,68.075-20.042,107.095c3.96,44.537,20.997,86.773,49.269,122.139 c59.787,74.8,66.762,110.886,67.182,113.388c0.532,7.794,6.977,13.311,14.812,13.311h54.609c8.224,0,14.891-6.668,14.891-14.891 S226.158,482.218,217.934,482.218z M95.656,33.435c27.869,0,56.174,12.981,76.014,24.67c-33.07,12.184-63.289,31.51-88.656,56.875 c-3.773,3.773-7.362,7.679-10.759,11.703L42.939,55.072C57.555,40.531,74.881,33.435,95.656,33.435z"/> <path style="fill:#000;" d="M497.841,42.455c-21.507-25.751-48.925-38.809-81.492-38.809 c-54.025,0-105.303,36.835-119.731,48.124c-4.537,3.55-6.619,9.399-5.347,15.016c1.272,5.618,5.671,9.999,11.294,11.249 c39.844,8.85,76.285,28.908,105.381,58.003c8.829,8.83,16.464,18.514,22.694,28.78c0.007,0.012,0.012,0.024,0.019,0.036 c29.629,48.785,31.161,133.787-23.236,201.852c-47.565,59.495-64.418,97.016-70.37,115.513h-28.079v-42.145 c0-8.223-6.667-14.891-14.891-14.891h-76.148c-8.224,0-14.891,6.668-14.891,14.891s6.667,14.891,14.891,14.891h61.256v42.145 c0,8.223,6.667,14.891,14.891,14.891h54.591c7.837,0,14.281-5.516,14.812-13.311c0.42-2.497,7.392-38.582,67.201-113.388 c28.264-35.367,45.296-77.604,49.256-122.147c3.468-39.022-3.635-76.714-20.027-107.095l40.278-98.417 C502.283,52.533,501.377,46.69,497.841,42.455z M439.759,126.677c-3.398-4.025-6.985-7.928-10.754-11.697 c-25.337-25.337-55.586-44.654-88.728-56.844c19.853-11.706,48.179-24.707,76.072-24.707c20.776,0,38.099,7.097,52.715,21.644 L439.759,126.677z"/> <path style="fill:#000;" d="M204.966,209.761c-8.224,0-14.891-6.668-14.891-14.891c0-6.144-7.361-11.334-16.072-11.334 c-8.711,0-16.072,5.19-16.072,11.334c0,8.223-6.667,14.891-14.891,14.891c-8.224,0-14.891-6.668-14.891-14.891 c0-22.672,20.569-41.116,45.854-41.116s45.855,18.446,45.855,41.116C219.857,203.094,213.191,209.761,204.966,209.761z"/> <path style="fill:#000;" d="M368.962,209.761c-8.224,0-14.891-6.668-14.891-14.891c0-6.144-7.359-11.334-16.072-11.334 c-8.713,0-16.072,5.19-16.072,11.334c0,8.223-6.667,14.891-14.891,14.891c-8.224,0-14.891-6.668-14.891-14.891 c0-22.672,20.571-41.116,45.854-41.116s45.854,18.446,45.854,41.116C383.853,203.094,377.186,209.761,368.962,209.761z"/> <path style="fill:#000;" d="M256,114.662c-8.224,0-14.891-6.668-14.891-14.891v-84.88C241.109,6.668,247.776,0,256,0 c8.224,0,14.891,6.668,14.891,14.891v84.88C270.891,107.994,264.224,114.662,256,114.662z"/> </g> </g>
</svg>